<svg width="38" height="14" viewBox="0 0 38 14" fill="none" xmlns="http://www.w3.org/2000/svg">
<path d="M8.94653 0.149414C9.67747 0.149414 10.2693 0.394034 10.7034 0.891602L10.8586 1.08594C11.1966 1.55786 11.3606 2.16177 11.3606 2.88574C11.3606 4.01102 11.1037 5.2276 10.6018 6.53613C11.1236 6.60717 11.7115 6.64551 12.3665 6.64551C12.6262 6.64553 12.8493 6.69566 12.9993 6.83008C13.1536 6.95965 13.2326 7.13288 13.2327 7.33594C13.2327 7.63184 13.1326 7.89562 12.9377 8.12207C12.7379 8.36795 12.4292 8.48334 12.0452 8.49414H12.0442C11.2136 8.51331 10.4678 8.45838 9.80786 8.33105C9.0401 9.79398 8.11522 11.0194 7.02856 12.0029C5.92482 13.0017 4.79915 13.5156 3.65454 13.5156C3.06149 13.5156 2.5376 13.3555 2.08911 13.0322C1.64213 12.71 1.279 12.2319 0.994385 11.6084C0.428285 10.3683 0.149675 8.70554 0.149658 6.62988C0.149658 4.8583 0.28624 3.26417 0.559814 1.84961C0.658068 1.32603 0.799609 0.936176 1.0061 0.72168L1.0979 0.640625C1.32445 0.465524 1.64857 0.390647 2.04224 0.390625C2.4164 0.390625 2.72465 0.464669 2.94165 0.637695C3.16513 0.815906 3.26685 1.07852 3.26685 1.39746C3.26684 1.46907 3.25521 1.58873 3.23364 1.74805L3.23267 1.75488C2.9082 3.55243 2.74634 5.17728 2.74634 6.62988C2.74635 8.15669 2.88076 9.30448 3.1438 10.083H3.14478C3.41873 10.8513 3.79851 11.1709 4.25708 11.1709C4.75734 11.1709 5.33316 10.8488 5.98657 10.1367C6.6129 9.45411 7.19099 8.59887 7.7229 7.57031C7.10091 7.18812 6.62172 6.70504 6.29224 6.11621L6.29126 6.11523C5.94112 5.47891 5.76784 4.75199 5.76782 3.93848C5.76782 3.13102 5.90122 2.44095 6.17407 1.87402V1.87207C6.45621 1.29904 6.83882 0.864835 7.32349 0.577148L7.32446 0.576172C7.81515 0.291689 8.35695 0.149444 8.94653 0.149414ZM8.55591 2.16406C8.33108 2.16406 8.13492 2.28102 7.96899 2.56934L7.96802 2.57129C7.80323 2.84875 7.71217 3.26385 7.71216 3.83301C7.71216 4.69504 7.98507 5.33285 8.51685 5.77051C8.89011 4.74151 9.07349 3.89683 9.07349 3.23145C9.07346 2.81808 9.01343 2.54808 8.91724 2.39453L8.91528 2.3916C8.81867 2.22942 8.70151 2.16406 8.55591 2.16406Z" fill="black" stroke="black" stroke-width="0.3"/>
<path d="M37.1167 9.10574C37.1167 9.96861 36.9407 10.7164 36.5887 11.3492C36.2367 11.982 35.7036 12.4709 34.9893 12.8161C34.2853 13.1612 33.4002 13.3338 32.3338 13.3338C30.8017 13.3338 29.6319 12.9743 28.8244 12.2552C28.0272 11.5266 27.6287 10.4959 27.6287 9.16327V2.92188H30.6412V8.94755C30.6412 9.67619 30.7862 10.2035 31.076 10.5295C31.3762 10.8554 31.811 11.0184 32.3804 11.0184C32.7945 11.0184 33.1258 10.9465 33.3743 10.8027C33.6331 10.6589 33.8194 10.4336 33.9333 10.1268C34.0575 9.82001 34.1196 9.42213 34.1196 8.93317V2.92188H37.1167V9.10574Z" fill="black"/>
<path d="M27.0334 13.19H18.3994V11.4786L23.1978 5.16533H18.5081V2.92188H26.9091V4.63323L22.1108 10.9465H27.0334V13.19Z" fill="black"/>
<path d="M16.949 13.1904H13.9364V11.9515V11.1196V4.97883V4.1613L13.9346 2.91406L16.949 2.92233V4.1613V4.97883V11.1196V12.3475V13.1904Z" fill="black"/>
</svg>
